HIERARCHY
ROOT Hips
{
	OFFSET 0.000000 83.214638 0.000000
	CHANNELS 6 Xposition Yposition Zposition Xrotation Yrotation Zrotation
	JOINT Pelvis
	{
		OFFSET 0.000000 0.000000 0.000000
		CHANNELS 3 Xrotation Yrotation Zrotation
		JOINT LeftUpLeg
		{
			OFFSET 8.479700 -4.795502 -0.379100
			CHANNELS 3 Xrotation Yrotation Zrotation
			JOINT LeftLeg
			{
				OFFSET 0.024144 -32.555107 0.112900
				CHANNELS 3 Xrotation Yrotation Zrotation
				JOINT LeftFoot
				{
					OFFSET -0.024144 -32.638630 -3.012600
					CHANNELS 3 Xrotation Yrotation Zrotation
					JOINT LeftToeBase
					{
						OFFSET 0.970200 -13.225400 11.864200
						CHANNELS 3 Xrotation Yrotation Zrotation
						End Site
						{
							OFFSET 0.000000 12.319262 0.000000
						}
					}
					JOINT LFootTongue
					{
						OFFSET 1.142400 -1.059800 6.665200
						CHANNELS 3 Xrotation Yrotation Zrotation
						End Site
						{
							OFFSET 0.000000 12.319262 0.000000
						}
					}
				}
				JOINT LeftPantLeg
				{
					OFFSET 0.918482 -16.533964 -2.284700
					CHANNELS 3 Xrotation Yrotation Zrotation
					End Site
					{
						OFFSET 0.350399 24.744368 0.000000
					}
				}
			}
		}
		JOINT RightUpLeg
		{
			OFFSET -8.479700 -4.795502 -0.379100
			CHANNELS 3 Xrotation Yrotation Zrotation
			JOINT RightLeg
			{
				OFFSET -0.023144 -32.555092 0.112900
				CHANNELS 3 Xrotation Yrotation Zrotation
				JOINT RightFoot
				{
					OFFSET 0.023144 -32.638641 -3.012700
					CHANNELS 3 Xrotation Yrotation Zrotation
					JOINT RightToeBase
					{
						OFFSET -0.970200 -13.225400 11.864200
						CHANNELS 3 Xrotation Yrotation Zrotation
						End Site
						{
							OFFSET 0.000000 12.319244 0.000000
						}
					}
					JOINT RFootTongue
					{
						OFFSET -1.142200 -1.059800 6.665200
						CHANNELS 3 Xrotation Yrotation Zrotation
						End Site
						{
							OFFSET 0.000000 12.319243 0.000000
						}
					}
				}
				JOINT RightPantLeg
				{
					OFFSET -0.919482 -16.533978 -2.284800
					CHANNELS 3 Xrotation Yrotation Zrotation
					End Site
					{
						OFFSET -0.350400 24.744419 0.000000
					}
				}
			}
		}
	}
	JOINT Spine
	{
		OFFSET 0.000000 7.722000 1.166200
		CHANNELS 3 Xrotation Yrotation Zrotation
		JOINT Spine1
		{
			OFFSET 0.000000 12.024101 0.248800
			CHANNELS 3 Xrotation Yrotation Zrotation
			JOINT Spine2
			{
				OFFSET 0.000000 11.502998 -0.491200
				CHANNELS 3 Xrotation Yrotation Zrotation
				JOINT Neck
				{
					OFFSET 0.000000 18.430702 -3.123100
					CHANNELS 3 Xrotation Yrotation Zrotation
					JOINT Head
					{
						OFFSET 0.000000 9.051102 1.034000
						CHANNELS 3 Xrotation Yrotation Zrotation
						JOINT HairB
						{
							OFFSET 0.208400 24.786102 24.822300
							CHANNELS 3 Xrotation Yrotation Zrotation
							End Site
							{
								OFFSET 0.000000 32.263779 0.000000
							}
						}
						JOINT HairA
						{
							OFFSET -7.081100 24.428299 23.196600
							CHANNELS 3 Xrotation Yrotation Zrotation
							End Site
							{
								OFFSET 0.000000 32.263779 0.000000
							}
						}
						JOINT Hat
						{
							OFFSET 16.728800 15.048294 -15.439601
							CHANNELS 3 Xrotation Yrotation Zrotation
							End Site
							{
								OFFSET 0.000000 32.263779 0.000000
							}
						}
					}
				}
				JOINT LeftShoulder
				{
					OFFSET 6.197800 13.665199 -4.064700
					CHANNELS 3 Xrotation Yrotation Zrotation
					JOINT LeftArm
					{
						OFFSET 7.778100 -0.187103 -1.709300
						CHANNELS 3 Xrotation Yrotation Zrotation
						JOINT LeftForeArm
						{
							OFFSET 22.049376 0.000000 0.000000
							CHANNELS 3 Xrotation Yrotation Zrotation
							JOINT LeftHand
							{
								OFFSET 23.009392 0.000000 0.000000
								CHANNELS 3 Xrotation Yrotation Zrotation
								JOINT LeftHandThumb1
								{
									OFFSET 3.507191 -2.063065 3.133727
									CHANNELS 3 Xrotation Yrotation Zrotation
									JOINT LeftHandThumb2
									{
										OFFSET 3.101337 -1.790558 1.790558
										CHANNELS 3 Xrotation Yrotation Zrotation
										JOINT LeftHandThumb3
										{
											OFFSET 3.058640 -1.765907 1.765906
											CHANNELS 3 Xrotation Yrotation Zrotation
											End Site
											{
												OFFSET -0.415260 3.926476 -0.049563
											}
										}
									}
								}
								JOINT LeftHandIndex1
								{
									OFFSET 11.334419 -0.901459 3.706815
									CHANNELS 3 Xrotation Yrotation Zrotation
									JOINT LeftHandIndex2
									{
										OFFSET 3.283112 0.000000 0.000000
										CHANNELS 3 Xrotation Yrotation Zrotation
										JOINT LeftHandIndex3
										{
											OFFSET 3.323853 0.000000 0.000000
											CHANNELS 3 Xrotation Yrotation Zrotation
											End Site
											{
												OFFSET -1.135597 3.097809 0.402452
											}
										}
									}
								}
								JOINT LeftHandMiddle1
								{
									OFFSET 11.335861 0.000000 0.000000
									CHANNELS 3 Xrotation Yrotation Zrotation
									JOINT LeftHandMiddle2
									{
										OFFSET 3.410492 0.000000 0.000000
										CHANNELS 3 Xrotation Yrotation Zrotation
										JOINT LeftHandMiddle3
										{
											OFFSET 3.312172 0.000000 0.000000
											CHANNELS 3 Xrotation Yrotation Zrotation
											End Site
											{
												OFFSET -1.150200 3.080154 0.400270
											}
										}
									}
								}
								JOINT LeftHandRing1
								{
									OFFSET 11.514786 -0.013176 -3.003090
									CHANNELS 3 Xrotation Yrotation Zrotation
									JOINT LeftHandRing2
									{
										OFFSET 3.053307 0.000000 0.000000
										CHANNELS 3 Xrotation Yrotation Zrotation
										JOINT LeftHandRing3
										{
											OFFSET 3.295807 0.000000 0.000000
											CHANNELS 3 Xrotation Yrotation Zrotation
											End Site
											{
												OFFSET -1.281006 3.013344 0.375733
											}
										}
									}
								}
								JOINT LeftHandPinky1
								{
									OFFSET 10.518692 -0.960396 -5.730441
									CHANNELS 3 Xrotation Yrotation Zrotation
									JOINT LeftHandPinky2
									{
										OFFSET 2.861649 0.000000 0.000000
										CHANNELS 3 Xrotation Yrotation Zrotation
										JOINT LeftHandPinky3
										{
											OFFSET 2.863380 0.000000 0.000000
											CHANNELS 3 Xrotation Yrotation Zrotation
											End Site
											{
												OFFSET -0.843597 2.711159 0.369971
											}
										}
									}
								}
							}
							JOINT LSleeve
							{
								OFFSET 6.676277 -0.344902 -1.011730
								CHANNELS 3 Xrotation Yrotation Zrotation
								End Site
								{
									OFFSET 0.000000 14.885353 0.000000
								}
							}
						}
					}
				}
				JOINT RightShoulder
				{
					OFFSET -6.197800 13.665199 -4.064700
					CHANNELS 3 Xrotation Yrotation Zrotation
					JOINT RightArm
					{
						OFFSET -7.778100 -0.187103 -1.709300
						CHANNELS 3 Xrotation Yrotation Zrotation
						JOINT RightForeArm
						{
							OFFSET -22.049376 0.000000 0.000000
							CHANNELS 3 Xrotation Yrotation Zrotation
							JOINT RightHand
							{
								OFFSET -23.009392 0.000000 0.000000
								CHANNELS 3 Xrotation Yrotation Zrotation
								JOINT RightHandThumb1
								{
									OFFSET -3.507191 -2.063065 3.133727
									CHANNELS 3 Xrotation Yrotation Zrotation
									JOINT RightHandThumb2
									{
										OFFSET -3.101337 -1.790558 1.790558
										CHANNELS 3 Xrotation Yrotation Zrotation
										JOINT RightHandThumb3
										{
											OFFSET -3.058640 -1.765907 1.765906
											CHANNELS 3 Xrotation Yrotation Zrotation
											End Site
											{
												OFFSET 0.415260 3.926476 -0.049563
											}
										}
									}
								}
								JOINT RightHandIndex1
								{
									OFFSET -11.334419 -0.901459 3.706815
									CHANNELS 3 Xrotation Yrotation Zrotation
									JOINT RightHandIndex2
									{
										OFFSET -3.283112 0.000000 0.000000
										CHANNELS 3 Xrotation Yrotation Zrotation
										JOINT RightHandIndex3
										{
											OFFSET -3.323853 0.000000 0.000000
											CHANNELS 3 Xrotation Yrotation Zrotation
											End Site
											{
												OFFSET 1.135597 3.097809 0.402452
											}
										}
									}
								}
								JOINT RightHandMiddle1
								{
									OFFSET -11.335861 0.000000 0.000000
									CHANNELS 3 Xrotation Yrotation Zrotation
									JOINT RightHandMiddle2
									{
										OFFSET -3.410492 0.000000 0.000000
										CHANNELS 3 Xrotation Yrotation Zrotation
										JOINT RightHandMiddle3
										{
											OFFSET -3.312172 0.000000 0.000000
											CHANNELS 3 Xrotation Yrotation Zrotation
											End Site
											{
												OFFSET 1.150200 3.080154 0.400270
											}
										}
									}
								}
								JOINT RightHandRing1
								{
									OFFSET -11.514786 -0.013176 -3.003090
									CHANNELS 3 Xrotation Yrotation Zrotation
									JOINT RightHandRing2
									{
										OFFSET -3.053307 0.000000 0.000000
										CHANNELS 3 Xrotation Yrotation Zrotation
										JOINT RightHandRing3
										{
											OFFSET -3.295807 0.000000 0.000000
											CHANNELS 3 Xrotation Yrotation Zrotation
											End Site
											{
												OFFSET 1.281006 3.013344 0.375733
											}
										}
									}
								}
								JOINT RightHandPinky1
								{
									OFFSET -10.518692 -0.960396 -5.730441
									CHANNELS 3 Xrotation Yrotation Zrotation
									JOINT RightHandPinky2
									{
										OFFSET -2.861649 0.000000 0.000000
										CHANNELS 3 Xrotation Yrotation Zrotation
										JOINT RightHandPinky3
										{
											OFFSET -2.863380 0.000000 0.000000
											CHANNELS 3 Xrotation Yrotation Zrotation
											End Site
											{
												OFFSET 0.843597 2.711159 0.369971
											}
										}
									}
								}
							}
							JOINT RSleeve
							{
								OFFSET -6.676277 -0.344902 -1.011730
								CHANNELS 3 Xrotation Yrotation Zrotation
								End Site
								{
									OFFSET 0.000000 14.885353 0.000000
								}
							}
						}
					}
				}
				JOINT Backpack
				{
					OFFSET 0.000000 -2.471497 36.677502
					CHANNELS 3 Xrotation Yrotation Zrotation
					End Site
					{
						OFFSET 0.000000 20.427315 0.000000
					}
				}
				JOINT Hood
				{
					OFFSET 0.000000 18.754097 -10.431000
					CHANNELS 3 Xrotation Yrotation Zrotation
					JOINT Hood1
					{
						OFFSET 0.000000 -5.011002 -7.685901
						CHANNELS 3 Xrotation Yrotation Zrotation
						End Site
						{
							OFFSET 0.000000 9.175140 0.000000
						}
					}
				}
				JOINT LHoodieString
				{
					OFFSET 5.250500 16.397697 3.089900
					CHANNELS 3 Xrotation Yrotation Zrotation
					JOINT LHoodieString1
					{
						OFFSET 0.257700 -6.364304 3.694600
						CHANNELS 3 Xrotation Yrotation Zrotation
						JOINT LHoodieString2
						{
							OFFSET 0.000000 -9.643799 2.679100
							CHANNELS 3 Xrotation Yrotation Zrotation
							End Site
							{
								OFFSET 0.000000 10.009018 0.000000
							}
						}
					}
				}
				JOINT RHoodieString
				{
					OFFSET -5.250500 16.397697 3.089900
					CHANNELS 3 Xrotation Yrotation Zrotation
					JOINT RHoodieString1
					{
						OFFSET -0.257700 -6.364304 3.694600
						CHANNELS 3 Xrotation Yrotation Zrotation
						JOINT RHoodieString2
						{
							OFFSET 0.000000 -9.643799 2.679100
							CHANNELS 3 Xrotation Yrotation Zrotation
							End Site
							{
								OFFSET 0.000000 10.009018 0.000000
							}
						}
					}
				}
			}
			JOINT LBackpack_Strap
			{
				OFFSET 15.223200 -7.719803 -6.610900
				CHANNELS 3 Xrotation Yrotation Zrotation
				End Site
				{
					OFFSET 0.000000 16.040596 0.000000
				}
			}
			JOINT RBackpack_Strap
			{
				OFFSET -15.223000 -7.719803 -6.610900
				CHANNELS 3 Xrotation Yrotation Zrotation
				End Site
				{
					OFFSET 0.000000 16.040596 0.000000
				}
			}
		}
	}
	JOINT BoyFacialAnim_Joint
	{
		OFFSET 1.000000 -82.208099 -1.550900
		CHANNELS 3 Xrotation Yrotation Zrotation
		End Site
		{
			OFFSET 0.000000 30.012791 0.000000
		}
	}
}
MOTION
Frames: 5
Frame Time: 0.033333
-1.597870 79.032158 35.499355 76.671728 57.497256 -126.125672 -0.000000 -0.000003 -0.000002 -76.685157 -10.238833 35.619290 50.778871 -8.792727 -0.067025 -18.056030 -6.009831 15.441393 -0.000000 -0.000002 -0.000000 -0.000000 -0.000002 -0.000000 -0.000002 0.000002 -0.000001 -51.606048 -42.983856 -29.163255 115.935385 -8.463678 1.062935 16.737812 -3.538136 -7.381439 0.000000 -0.000001 -0.000001 0.000000 -0.000001 -0.000001 -0.000003 0.000002 -0.000001 4.167582 -1.268496 -2.690132 7.558181 -2.011538 -2.533620 7.521519 -2.157515 -2.522067 5.101189 -2.786520 -2.981584 8.386303 -25.177623 31.041779 -0.000003 0.000000 -0.000000 -0.000003 0.000000 -0.000000 -0.000003 0.000000 -0.000000 1.050335 -11.836287 -12.328069 31.950044 -41.388419 -4.745640 0.070899 -93.180487 0.070671 27.366698 1.699168 32.877863 -9.771358 -0.764429 10.277979 5.176220 11.457547 11.113043 0.000001 -0.000001 0.000000 3.694717 -9.189979 18.535632 -0.000014 -0.000006 0.000003 -0.000003 0.000001 -0.000003 0.077601 1.960875 3.900596 -0.000001 -0.000001 -0.000026 0.000001 -0.000003 -0.000000 0.726272 6.999764 -8.807558 -0.000001 -0.000004 -0.000008 -0.000001 0.000000 0.000003 3.118616 11.685802 -19.873004 0.000001 0.000001 0.000002 -0.000001 0.000002 -0.000003 -0.000001 0.000000 0.000003 5.841090 4.730332 -3.561839 2.136698 -24.160611 56.716508 0.000021 65.575540 -0.000018 -1.042125 -11.883701 -20.866184 -11.269576 20.282841 1.210518 9.098101 -38.083304 -3.659891 -0.000002 0.000001 -0.000004 -4.269010 7.366058 22.836493 0.504654 -2.110331 26.894191 -0.000000 -0.000000 0.000002 0.903157 -4.970086 35.230577 0.508497 -2.117875 26.998467 0.000002 0.000002 -0.000002 6.617115 -10.928473 43.988792 0.877443 -2.722797 35.718109 0.000001 0.000001 0.000002 8.800627 -26.775429 53.016912 0.886974 -2.735972 35.918028 -0.000000 0.000001 -0.000001 -0.000000 -0.000002 -0.000001 -0.000001 -0.000003 -0.000003 -0.000001 -0.000003 -0.000003 -0.000001 -0.000003 -0.000003 -0.000001 -0.000003 -0.000003 -0.000001 -0.000003 -0.000003 -0.000003 0.000001 0.000001 -0.000001 -0.000003 -0.000003 -0.000001 -0.000003 -0.000003 -0.000003 0.000001 0.000001 -0.000000 0.000002 -0.000001 -0.000000 0.000002 -0.000001 -0.000000 -0.000003 -0.000002 
-0.805477 78.911354 34.406635 70.165891 62.415198 -116.191626 0.000001 -0.000000 0.000001 -69.114896 -8.054855 36.815420 52.744462 -4.627946 0.177568 -21.810088 -3.605980 14.228352 0.000000 0.000001 0.000000 0.000000 0.000001 0.000000 0.000001 0.000004 -0.000002 -43.471975 -38.196269 -19.404933 110.338182 -9.829078 2.007536 10.997483 -3.906024 -11.770696 0.000000 -0.000002 -0.000001 0.000000 -0.000002 -0.000001 0.000001 -0.000000 -0.000000 3.786279 -1.912878 -2.523832 6.888171 -3.251625 -2.352161 6.826325 -3.379460 -2.358786 5.060786 -2.451971 -3.354283 8.380376 -24.017489 31.043910 0.000003 -0.000002 -0.000001 0.000003 -0.000002 -0.000001 0.000003 -0.000002 -0.000001 1.205766 -12.443177 -11.861699 30.902866 -45.164322 -5.312214 -0.003493 -94.775391 -0.003461 24.774141 2.122474 34.329224 -9.737753 -2.117898 9.360916 5.581604 14.102974 10.608165 0.000002 -0.000000 0.000001 2.663673 -8.679749 13.711539 0.032795 0.619647 -6.058375 -0.000002 -0.000001 -0.000000 0.064416 2.430409 -0.683689 0.032969 0.621494 -6.076408 0.000003 -0.000003 0.000002 1.107652 7.466699 -13.058902 0.041015 0.692708 -6.775687 -0.000001 0.000001 -0.000000 4.044558 12.329414 -24.216576 0.040040 0.684500 -6.695039 -0.000001 -0.000001 0.000003 -0.000000 0.000004 -0.000000 5.881307 4.295505 -3.392643 5.749055 -19.876732 59.084340 -0.000039 77.250662 0.000039 -5.303167 -10.636595 -24.627827 -11.269578 20.282841 1.210522 8.963679 -36.918375 -3.606519 -0.000000 0.000000 -0.000004 -4.209060 8.708817 20.502126 0.281026 -1.594863 19.985726 -0.000001 0.000003 0.000001 0.790888 -4.804268 32.765524 0.284342 -1.603951 20.104556 -0.000000 -0.000001 -0.000002 6.574424 -11.376343 41.502535 0.577464 -2.248064 28.809236 -0.000001 0.000000 0.000006 6.974681 -28.885386 49.472194 0.590463 -2.271554 29.138939 0.000001 -0.000000 -0.000001 0.000000 -0.000003 0.000001 -0.000002 0.000000 0.000000 -0.000002 0.000000 0.000000 -0.000002 0.000000 0.000000 -0.000002 0.000000 0.000000 -0.000002 0.000000 0.000002 -0.000001 0.000000 0.000002 -0.000002 0.000000 0.000000 -0.000002 0.000000 0.000002 -0.000001 0.000000 0.000002 0.000003 0.000000 -0.000001 0.000003 0.000000 -0.000001 0.000001 -0.000000 0.000001 
0.164803 79.243286 33.219677 55.691221 66.906067 -98.026964 -0.000000 0.000001 0.000000 -59.429817 -4.136685 37.309673 52.449808 -0.291816 0.535624 -24.730571 0.916964 12.828927 -0.000000 -0.000001 -0.000000 -0.000000 -0.000001 -0.000000 -0.000001 -0.000001 0.000001 -36.164322 -32.080914 -11.420735 104.079611 -10.733201 2.417468 3.660640 -7.067049 -14.872894 0.000001 -0.000000 -0.000001 0.000001 -0.000000 -0.000001 -0.000000 -0.000002 -0.000002 3.405061 -2.236743 -2.358846 6.192653 -3.989369 -2.243989 6.118214 -4.099665 -2.259221 5.392162 -2.031591 -3.963633 8.560215 -22.620391 30.244347 -0.000001 0.000000 -0.000001 -0.000001 0.000000 -0.000001 -0.000001 0.000000 -0.000001 1.376918 -12.585092 -11.470643 28.280460 -44.777935 -6.843356 0.000354 -97.616538 0.000335 22.694461 1.422765 34.326792 -9.711919 -4.505559 7.779470 6.275191 18.733078 9.681451 0.000001 -0.000001 -0.000002 1.036327 -7.533007 5.329487 0.246779 1.683966 -16.671570 0.000001 -0.000000 -0.000002 0.131699 3.248732 -8.706161 0.247829 1.687584 -16.708565 0.000006 -0.000004 0.000003 1.860930 8.174530 -20.515882 0.307708 1.875466 -18.634749 -0.000002 0.000003 -0.000003 5.812261 13.159368 -31.878532 0.300756 1.854711 -18.420721 -0.000003 0.000000 -0.000000 -0.000000 0.000002 0.000000 5.935218 3.748201 -3.575788 10.286789 -12.550323 61.302362 -0.001216 86.274988 0.001222 -5.292706 -9.047976 -26.282805 -11.269576 20.282832 1.210520 8.887511 -36.255757 -3.575008 0.000000 0.000000 -0.000002 -4.129641 9.474557 19.167603 0.182076 -1.290800 16.057500 -0.000000 -0.000001 -0.000000 0.730281 -4.707836 31.363658 0.184961 -1.300758 16.184535 0.000001 -0.000000 -0.000002 6.531857 -11.634272 40.084676 0.433105 -1.963048 24.881320 -0.000001 -0.000002 0.000002 5.796818 -30.023241 47.364285 0.447003 -1.992743 25.284633 0.000000 -0.000001 0.000000 -0.000000 -0.000002 0.000000 0.000002 0.000000 -0.000000 0.000002 0.000000 -0.000000 0.000002 0.000000 -0.000000 0.000002 0.000000 -0.000000 0.000002 0.000000 0.000002 0.000002 -0.000001 -0.000001 0.000002 0.000000 -0.000000 0.000002 0.000000 0.000002 0.000002 -0.000001 -0.000001 -0.000001 0.000001 0.000001 -0.000001 0.000001 0.000001 -0.000000 0.000001 0.000000 
1.266886 79.914078 32.031506 32.604311 68.307226 -70.942702 -0.000001 -0.000000 0.000000 -49.249622 0.920560 34.705363 51.167047 -0.433773 1.190984 -25.912602 11.990610 17.093546 0.000000 0.000003 -0.000000 0.000000 0.000003 0.000000 0.000002 0.000000 0.000001 -30.127971 -26.266285 -5.984845 97.200586 -10.491463 1.547158 0.027958 -12.051344 -13.852858 -0.000000 0.000001 -0.000003 -0.000000 0.000001 -0.000003 0.000001 0.000001 0.000002 3.148568 -2.125447 -2.301216 5.661477 -3.979231 -2.251093 5.594504 -4.070578 -2.264008 5.893126 -1.603543 -4.742860 8.669268 -21.178166 28.582924 0.000002 -0.000003 0.000001 0.000002 -0.000003 0.000001 0.000002 -0.000003 0.000001 1.495874 -12.135029 -11.727875 26.087880 -40.444402 -8.651217 0.000013 -101.476011 0.000015 21.031356 0.147386 33.053485 -9.739269 -7.544405 5.826565 7.130996 24.562018 8.437972 -0.000002 0.000002 0.000003 -0.610099 -5.681158 -5.103452 0.789049 2.938269 -30.057374 -0.000001 0.000002 -0.000005 0.377750 4.251516 -18.810047 0.791216 2.942029 -30.100053 0.000003 0.000001 -0.000001 2.920325 8.846951 -29.929240 0.979028 3.244010 -33.579566 -0.000001 -0.000000 -0.000000 8.168765 13.630144 -41.589039 0.958561 3.213035 -33.216163 0.000001 -0.000000 -0.000000 0.000000 0.000002 -0.000000 5.988570 3.189220 -3.788812 13.607206 -2.772250 62.029982 -0.053043 93.233011 0.052829 -3.719870 -6.710076 -26.253140 -11.269576 20.282839 1.210523 8.877106 -36.165063 -3.570625 0.000001 0.000000 0.000001 -4.116193 9.579374 18.984553 0.170169 -1.248698 15.520020 -0.000000 -0.000000 0.000002 0.722168 -4.694515 31.171829 0.172974 -1.258734 15.648158 -0.000001 0.000000 0.000003 6.524994 -11.669703 39.890443 0.414872 -1.923282 24.343919 0.000001 0.000002 0.000001 5.627680 -30.175028 47.070484 0.428857 -1.953870 24.757305 0.000000 0.000000 -0.000001 0.000001 0.000000 -0.000001 0.000003 0.000001 0.000003 0.000003 0.000001 0.000003 0.000003 0.000001 0.000003 0.000003 0.000001 0.000003 0.000003 0.000001 0.000003 -0.000001 0.000001 0.000001 0.000003 0.000001 0.000003 0.000003 0.000001 0.000003 -0.000001 0.000001 0.000001 0.000002 0.000000 -0.000001 0.000002 0.000000 -0.000001 -0.000001 -0.000000 0.000000 
2.405497 80.647072 30.803005 11.388070 65.127507 -45.433274 0.000002 -0.000001 -0.000000 -40.605126 4.766408 29.521614 50.486426 0.510937 1.965424 -22.688230 22.457893 18.452338 -0.000000 -0.000001 0.000001 -0.000000 -0.000001 0.000001 -0.000002 -0.000000 0.000000 -24.715757 -21.550408 -3.379795 89.834924 -10.408899 0.456040 2.162015 -14.690972 -9.456304 -0.000001 -0.000001 0.000001 -0.000001 -0.000001 0.000001 -0.000002 0.000001 -0.000001 3.083251 -1.733984 -2.362858 5.446664 -3.437187 -2.332366 5.401889 -3.505302 -2.340008 6.381954 -1.222367 -5.331225 7.802203 -19.676831 26.354474 -0.000001 -0.000000 -0.000000 -0.000001 -0.000000 -0.000000 -0.000001 -0.000000 -0.000000 1.583945 -11.322740 -12.405081 23.653229 -34.296501 -11.640692 0.000049 -104.600871 0.000079 19.301384 -1.147532 31.194502 -9.843655 -10.836079 3.775656 8.044513 30.800711 7.009600 0.000000 0.000001 0.000001 -1.760898 -3.304815 -16.131385 1.675768 4.102645 -44.421696 -0.000002 0.000001 -0.000003 0.832334 5.258422 -29.638243 1.678185 4.105082 -44.455499 0.000001 0.000002 -0.000003 4.116317 9.282375 -40.025650 2.063526 4.463025 -49.610710 0.000002 0.000002 -0.000002 10.629257 13.425081 -51.984819 2.024870 4.429937 -49.111799 0.000002 -0.000000 -0.000002 0.000002 0.000000 0.000000 5.990332 3.187329 -3.488945 14.397416 6.863887 59.874695 -0.000196 99.083321 0.000200 -2.364330 -4.044267 -25.071449 -11.269580 20.282841 1.210521 8.877096 -36.165090 -3.570632 -0.000001 0.000000 0.000000 -4.116200 9.579353 18.984548 0.170168 -1.248702 15.520022 -0.000003 -0.000000 0.000004 0.722166 -4.694520 31.171819 0.172963 -1.258748 15.648156 -0.000001 -0.000003 0.000003 6.524986 -11.669703 39.890446 0.414874 -1.923261 24.343904 0.000000 0.000000 0.000004 5.627685 -30.175035 47.070501 0.428864 -1.953890 24.757294 0.000000 -0.000001 0.000000 -0.000000 0.000002 0.000002 0.000001 -0.000001 -0.000002 0.000001 -0.000001 -0.000002 0.000001 -0.000001 -0.000002 0.000001 -0.000001 -0.000002 0.000001 -0.000001 -0.000000 0.000002 -0.000002 0.000003 0.000001 -0.000001 -0.000002 0.000001 -0.000001 -0.000000 0.000002 -0.000002 0.000003 -0.000003 0.000000 -0.000000 -0.000003 0.000000 -0.000000 0.000002 -0.000001 -0.000000 
